<?xml version="1.0" encoding="UTF-8" standalone="no"?>
<!-- Created with Inkscape (http://www.inkscape.org/) -->

<svg
   width="510.69867mm"
   height="514.01105mm"
   viewBox="0 0 510.69867 514.01105"
   version="1.1"
   id="svg5"
   xml:space="preserve"
   xmlns="http://www.w3.org/2000/svg"
   xmlns:svg="http://www.w3.org/2000/svg"><defs
     id="defs2" /><g
     id="layer1"
     transform="translate(-13922.106,3509.547)"><path
           style="fill:#5E93A1;stroke-width:1"
       d="m 14279.039,-2997.4589 c -0.841,-1.0559 -2.703,-3.6901 -4.137,-5.8537 -2.697,-4.0677 -12.307,-16.2671 -17.185,-21.8143 -1.529,-1.7391 -6.92,-8.1422 -11.979,-14.2292 -10.33,-12.4277 -16.946,-20.1314 -19.589,-22.812 -1.992,-2.0206 -1.52,-1.2635 2.381,3.8137 1.23,1.6007 3.44,5.0564 4.911,7.6793 4.605,8.2074 7.317,13.2704 7.317,13.657 0,0.2047 -0.356,0.3754 -0.79,0.3793 -0.675,0.013 -0.691,0.07 -0.115,0.4353 1.388,0.877 -0.666,1.8572 -6.145,2.9331 -2.956,0.5804 -7.277,1.5925 -9.602,2.2489 l -4.229,1.1936 -2.185,-1.1427 c -1.203,-0.6284 -4.483,-2.0713 -7.29,-3.2063 -6.107,-2.4686 -6.123,-2.4786 -11.106,-6.9326 -7.556,-6.7536 -16.615,-14.1556 -20.582,-16.816 l -3.996,-2.6803 -4.135,2.2839 c -2.274,1.2562 -8.939,4.7005 -14.812,7.6542 -5.873,2.9535 -14.562,7.5328 -19.309,10.176 -4.746,2.6433 -8.794,4.7046 -8.995,4.5808 -0.2,-0.1242 -3.999,-0.3465 -8.442,-0.4946 l -8.077,-0.2696 -5.451,3.1263 c -2.999,1.7195 -9.72,5.4077 -14.938,8.196 -5.217,2.7884 -12.637,6.7659 -16.488,8.839 -11.311,6.0897 -17.143,8.5832 -23.048,9.8553 -2.862,0.6168 -6.724,1.5335 -8.582,2.0371 l -3.378,0.9158 -9.035,-4.4444 c -4.968,-2.4443 -11.473,-5.5023 -14.455,-6.7955 -12.907,-5.5982 -14.998,-6.7971 -14.431,-8.275 0.197,-0.5131 0.668,-0.645 1.706,-0.4776 1.361,0.2197 18.132,-2.7461 19.138,-3.3844 0.268,-0.1702 0.619,-2.9748 0.802,-6.4013 0.18,-3.354 0.382,-6.1999 0.452,-6.3241 0.06,-0.1242 0.267,-3.3146 0.438,-7.0897 0.439,-9.6719 0.689,-11.5185 2.426,-17.916 1.206,-4.4431 1.212,-4.4546 3.244,-5.4752 1.119,-0.5623 2.543,-1.1736 3.164,-1.3584 2.817,-0.8373 13.822,-4.9051 14.194,-5.2469 0.583,-0.5333 -5.519,1.3526 -16.903,5.2252 -14.859,5.0541 -38.276,14.4723 -57.435,23.0995 -4.631,2.0859 -8.723,3.7926 -9.091,3.7926 -0.369,0 -2.474,-1.9767 -4.677,-4.3929 -2.205,-2.4161 -7.138,-7.7385 -10.963,-11.8276 -7.776,-8.3152 -13.598,-15.1709 -15.189,-17.8846 -0.583,-0.9938 -2.5,-6.6444 -4.262,-12.5569 -1.761,-5.9126 -3.921,-12.8972 -4.798,-15.5214 -1.491,-4.4543 -1.547,-4.8259 -0.854,-5.5922 0.479,-0.5294 3.177,-1.406 7.592,-2.4675 13.801,-3.3182 23.222,-5.7502 33.214,-8.5742 5.622,-1.589 15.915,-4.3068 22.872,-6.0393 14.171,-3.5294 19.62,-5.246 29.136,-9.1759 6.462,-2.6696 15.308,-7.2955 17.281,-9.0376 0.557,-0.4922 0.778,-0.778 0.493,-0.6352 -0.287,0.1428 -3.844,-1.2396 -7.906,-3.072 -9.075,-4.0946 -23.084,-10.6937 -23.502,-11.0704 -0.329,-0.2975 0.372,-7.6068 1.843,-19.2257 0.694,-5.4789 1.102,-7.3739 1.72,-7.9704 0.997,-0.9631 11.438,-6.9573 16.765,-9.6242 4.807,-2.4065 17.389,-7.9521 18.042,-7.9521 0.262,0 2.984,1.4467 6.051,3.2149 6.834,3.9404 20.931,11.0362 27.936,14.062 6.666,2.8794 13.219,5.3417 13.49,5.0698 0.115,-0.1165 0,-0.2122 -0.268,-0.2122 -0.796,0 -7.472,-10.3027 -9.805,-15.1328 -4.979,-10.3037 -7.733,-19.0098 -9.076,-28.6843 -1.146,-8.2528 -1.39,-28.1393 -0.475,-38.8482 1.544,-18.0897 2.467,-21.4867 14.492,-53.3032 2.394,-6.3354 5.049,-13.8111 5.898,-16.6126 1.854,-6.1081 2.909,-14.0022 2.912,-21.7702 0,-11.742 1.32,-20.1261 4.361,-27.7695 1.858,-4.6716 6.214,-13.5519 9.552,-19.4779 1.251,-2.2201 3.196,-6.2891 4.323,-9.0419 5.236,-12.7918 8.274,-29.7146 6.848,-38.1342 l -0.344,-2.0327 1.152,1.068 c 1.371,1.2719 3.977,6.1623 4.967,9.3216 1.26,4.0207 1.731,9.0378 1.516,16.148 -0.216,7.1228 0.184,13.7793 1.064,17.721 1.784,7.9854 5.509,16.7272 10.071,23.6407 3.146,4.7652 7.687,9.9922 8.226,9.4689 0.425,-0.4114 -0.128,-3.0289 -2.747,-12.9979 -1.839,-7.0054 -2.105,-8.6303 -2.334,-14.2773 -0.478,-11.8033 1.476,-21.6115 7.179,-36.0369 2.129,-5.3805 3.752,-8.703 9.737,-19.9285 7.236,-13.5698 9.145,-19.3433 9.15,-27.6681 0,-2.8494 0.181,-4.63 0.465,-4.63 0.655,0 3.816,4.9974 5.857,9.2602 4.445,9.2793 4.327,18.9547 -0.361,29.5492 -0.944,2.133 -3.658,6.9274 -6.032,10.6541 -2.374,3.7267 -4.875,7.88 -5.557,9.2295 -6.51,12.8636 -8.371,30.2504 -5.179,48.3651 2.15,12.1968 3.993,17.5801 11.824,34.5568 5.125,11.1077 7.577,18.3852 9.544,28.3229 2.521,12.7477 2.531,22.4543 0.03,32.4337 -1.036,4.1339 -1.978,6.5523 -2.017,5.1722 -0.08,-3.0101 -1.109,-9.9882 -2.015,-13.6952 -1.807,-7.3815 -4.785,-13.4164 -9.164,-18.5649 l -1.332,-1.5656 0.403,2.6949 c 1.018,6.8131 0.484,27.2519 -0.92,35.2188 -0.263,1.4908 -0.933,7.589 -1.488,13.5518 -1.194,12.8 -1.477,36.3995 -0.492,41.0703 0.31,1.4706 0.494,2.7427 0.41,2.8269 -0.274,0.2745 -6.469,-9.0442 -7.861,-11.825 -4.424,-8.8385 -7.35,-22.2196 -7.382,-33.7577 -0.01,-6.929 0.207,-8.7888 2.293,-18.8679 1.146,-5.5309 1.356,-7.5691 1.354,-13.1 0,-8.4105 -1.002,-17.7097 -2.425,-22.5861 -1.095,-3.7564 -4.814,-12.4225 -9.979,-23.2636 -11.209,-23.5232 -14.074,-31.1639 -16.961,-45.2358 -0.757,-3.6917 -1.492,-7.0173 -1.632,-7.3899 -0.347,-0.9177 -0.664,-0.033 -3.362,9.3457 -3.351,11.6548 -4.643,18.7118 -5.327,29.1254 -0.41,6.22 -0.01,10.586 1.507,16.5809 2.014,7.9465 2.651,12.9269 2.689,21.0632 0.05,11.3575 -1.458,17.4172 -6.704,26.8703 -1.588,2.8611 -3.2,5.9643 -3.584,6.896 -0.383,0.9316 -0.757,1.694 -0.833,1.6942 -0.08,2e-4 -0.06,-2.7949 0.01,-6.2112 0.103,-4.5888 -0.159,-8.8665 -1.028,-16.3752 -1.432,-12.3742 -1.832,-15.2854 -2.149,-15.6009 -0.691,-0.6912 -4.662,14.5529 -5.77,22.1509 -3.132,21.4729 -4.192,33.834 -4.205,49.0119 -0.03,29.4133 3.036,39.6349 16.785,56.0423 7.535,8.9936 17.067,15.3995 28.743,19.3185 5.288,1.7752 7.725,2.2422 7.205,1.3815 -0.208,-0.345 -1.09,-1.7452 -1.961,-3.1117 -0.87,-1.3664 -2.456,-4.6188 -3.522,-7.2275 -2.877,-7.0363 -2.619,-7.5614 1.342,-2.7137 4.134,5.0609 7.455,7.0761 16.359,9.9285 6.251,2.0026 8.657,2.1903 10.336,0.8063 l 1.3,-1.0724 -4.011,-3.2002 c -10.642,-8.4916 -19.012,-19.6577 -24.481,-32.6588 -4.877,-11.5948 -6.653,-18.6742 -6.282,-25.0386 0.243,-4.1728 1.137,-8.8405 1.693,-8.8405 0.169,0 0.422,1.7829 0.563,3.9621 0.284,4.3771 1.412,9.2644 3.538,15.3175 4.904,13.9687 15.291,26.1226 31.941,37.3743 5.535,3.7406 9.156,5.6912 13.63,7.3422 1.618,0.5971 3.247,1.2001 3.62,1.3399 0.508,0.1905 0.395,0.3736 -0.452,0.7313 -0.621,0.2624 -1.31,0.4356 -1.533,0.3849 -0.556,-0.1268 -6.337,1.1839 -9.082,2.0596 -3.719,1.1861 -12.901,5.0998 -15.938,6.7932 l -2.839,1.5825 3.406,3.6793 c 1.872,2.0237 5.813,6.6269 8.757,10.2294 2.944,3.6024 7.059,8.4238 9.145,10.7141 2.086,2.2902 7.04,7.7787 11.007,12.1965 3.968,4.4178 9.458,10.3818 12.196,13.2532 8.011,8.3944 18.629,20.4535 24.437,27.7549 7.787,9.7877 11.004,13.3437 25.752,28.4585 7.271,7.4534 15.374,16.0926 18.004,19.1983 5.298,6.2528 10.208,13.1915 10.17,14.3692 -0.06,1.8111 -5.315,4.1765 -7.541,3.3935 -1.297,-0.4566 -0.16,0.5307 2.847,2.4716 l 2.733,1.7648 2.75,-2.5836 c 4.155,-3.9061 8.373,-6.7267 12.241,-8.186 3.514,-1.326 13.383,-3.9557 18.39,-4.8995 3.982,-0.7511 3.895,-0.6986 3.25,-1.9408 -0.523,-1.0088 -2.625,-3.3629 -13.805,-15.4565 -2.526,-2.7329 -7.384,-8.018 -10.797,-11.7447 -3.411,-3.7267 -7.931,-8.607 -10.043,-10.845 -2.112,-2.2381 -7.195,-7.716 -11.293,-12.1733 -10.247,-11.1412 -19.933,-21.5166 -29.332,-31.4169 -24.15,-25.4402 -32.755,-35.2804 -44.24,-50.5901 -2.89,-3.8509 -6.562,-8.6278 -8.16,-10.6155 -8.119,-10.096 -11.744,-18.0508 -13.793,-30.2656 -1.392,-8.2916 -1.215,-15.1772 0.662,-25.7877 1.067,-6.0303 2.495,-10.9853 9.034,-31.3552 3.178,-9.8988 5.342,-17.4795 5.931,-20.7791 0.511,-2.8573 1.04,-5.2966 1.176,-5.4208 0.457,-0.4176 -0.326,8.3269 -1.253,14.0143 -0.504,3.0996 -1.812,9.5995 -2.903,14.4442 -6.551,29.0886 -6.823,41.1467 -1.288,57.1014 1.78,5.1315 4.077,9.7636 5.957,12.0152 l 1.264,1.5138 0.08,-2.0343 c 0.04,-1.1189 0.381,-4.3439 0.753,-7.1667 0.372,-2.8229 0.677,-6.7088 0.677,-8.6354 0,-1.9266 0.197,-3.6249 0.439,-3.7739 0.507,-0.3135 0.58,-0.021 1.822,7.2194 1.081,6.2997 2.984,13.7919 5.248,20.6626 l 1.598,4.8525 2.447,-2.1421 c 3.628,-3.1784 17.122,-18.0859 20.675,-22.8445 3.628,-4.8572 7.262,-12.0993 9.534,-19.0001 2.983,-9.0597 3.552,-15.0307 2.498,-26.2489 -0.957,-10.1869 0.192,-20.5979 3.175,-28.7714 0.733,-2.0095 3.309,-7.2256 5.723,-11.5914 4.814,-8.7039 9.607,-19.3925 12.481,-27.8295 1.823,-5.3529 1.855,-5.5557 2.024,-12.8918 0.201,-8.7122 -0.775,-16.0271 -3.117,-23.3556 -2.312,-7.2389 -4.75,-11.431 -12.19,-20.9589 -12.337,-15.8015 -18.267,-25.6648 -21.217,-35.2962 -0.78,-2.5496 -1.528,-4.9405 -1.661,-5.3132 -0.364,-1.0217 -2.238,5.4026 -3.031,10.3891 -0.994,6.2514 -0.904,16.8933 0.216,25.6186 1.6,12.4581 4.179,22.1161 8.875,33.2335 7.332,17.3547 8.261,25.7536 4.065,36.7828 -1.347,3.5401 -3.994,7.7717 -5.084,8.1269 -0.34,0.1114 -0.476,-3.0148 -0.451,-10.3557 0.04,-9.5673 -0.05,-10.8808 -1.003,-14.5801 -1.276,-4.9819 -3.755,-11.6232 -4.421,-11.8379 -0.692,-0.2237 -4.424,7.9153 -5.787,12.6247 -1.486,5.1275 -2.212,12.242 -1.673,16.3787 0.227,1.7392 1.049,5.4998 1.828,8.3569 5.168,18.976 6.376,25.5723 6.375,34.8017 0,14.9412 -4.096,32.3453 -9.993,42.4805 -1.735,2.9831 -3.65,5.1814 -2.997,3.4419 1.132,-3.0203 1.854,-10.703 1.874,-19.9675 0.03,-10.0116 -0.102,-12.2895 -1.366,-25.0706 -1.042,-10.5376 -4.117,-29.2247 -6.985,-42.4634 -1.816,-8.3786 -10.888,-43.7073 -14.673,-57.1402 -3.546,-12.587 -4.279,-17.5692 -4.281,-29.0995 0,-4.3272 -0.08,-7.7828 -0.179,-7.6794 -0.506,0.5364 -1.736,9.8364 -2.356,17.8055 -0.741,9.5176 -0.617,14.934 0.528,23.2264 0.357,2.5882 0.559,4.7967 0.448,4.9078 -0.423,0.4226 -5.455,-7.9172 -7.282,-12.0693 -7.453,-16.936 -7.684,-34.5125 -0.651,-49.579 3.367,-7.2111 7.827,-12.5716 16.275,-19.5633 2.552,-2.1119 5.78,-4.8229 7.172,-6.0246 3.366,-2.9055 8.18,-6.3213 8.481,-6.0194 0.133,0.1331 -0.286,1.8302 -0.933,3.7714 -5.264,15.8246 -7.825,37.8276 -5.929,50.9604 1.288,8.9247 3.425,14.9008 7.697,21.5291 2.094,3.2511 7.839,10.0738 8.187,9.7253 0.102,-0.097 -0.423,-2.799 -1.155,-6.0036 -3.29,-14.381 -4.513,-39.6419 -2.534,-52.3542 1.607,-10.33 4.991,-21.4614 8.925,-29.3619 4.864,-9.7682 8.958,-15.2481 18.22,-24.393 4.571,-4.5138 8.53,-8.8548 9.606,-10.5311 2.308,-3.5997 3.416,-6.8678 3.107,-9.1686 -0.286,-2.1361 0.299,-2.3019 1.02,-0.2891 0.95,2.6531 1.102,9.2679 0.301,13.1339 -1.006,4.8467 -2.604,8.45 -7.924,17.8681 -9.232,16.3403 -11.992,24.3353 -11.949,34.6107 0.02,6.2021 1.457,12.7503 4.876,22.3213 3.771,10.5551 7.166,15.3968 17.064,24.3317 15.207,13.7277 20.019,21.5146 22.551,36.4961 2.453,14.5228 0.302,34.7318 -5.299,49.766 -2.442,6.5544 -5.732,13.3112 -8.497,17.4482 -2.437,3.6475 -5.902,7.451 -6.366,6.9872 -0.134,-0.1331 -0.04,-1.6444 0.208,-3.3586 0.646,-4.4574 0.605,-7.5252 -0.102,-7.3085 -0.914,0.283 -4.245,5.5218 -5.31,8.3528 -2.609,6.9351 -2.819,14.3008 -0.66,23.1682 4.166,17.1084 4.422,18.682 4.463,27.3292 0.04,8.9746 -0.229,10.5468 -3.149,18.1352 -2.829,7.3525 -7.89,13.2433 -16.688,19.4219 -2.484,1.7446 -7.668,5.3731 -11.518,8.0632 -7.161,5.0014 -11.944,8.7642 -11.591,9.117 0.115,0.1088 3.523,-0.2397 7.588,-0.7743 16.368,-2.1531 30.457,-7.1324 41.987,-14.8389 6.095,-4.0743 10.041,-7.7011 13.739,-12.6251 5.122,-6.8209 7.455,-12.1433 9.538,-21.7558 1.556,-7.1862 1.954,-23.9024 0.897,-37.6746 -0.398,-5.193 -0.73,-11.7994 -0.738,-14.6809 l -0.01,-5.2392 -2.183,4.3186 c -4.012,7.9371 -16.496,27.2113 -17.778,27.448 -0.435,0.081 -0.79,-0.07 -0.79,-0.3352 0,-0.2647 1.916,-4.4975 4.256,-9.4063 7.783,-16.3166 10.121,-23.482 14.038,-43.0319 1.411,-7.04 2.751,-13.2859 2.976,-13.8798 0.827,-2.1773 1.215,-1.0436 2.931,8.5738 0.432,2.4224 0.913,4.4043 1.07,4.4043 0.519,0 3.18,-4.7578 4.186,-7.4841 0.831,-2.25 0.993,-3.6574 1.012,-8.7779 0.04,-9.62 -1.298,-14.1033 -6.794,-22.859 -4.025,-6.4118 -8.386,-14.901 -10.303,-20.0546 -2.59,-6.9647 -3.111,-9.8404 -3.068,-16.9396 0.06,-9.6302 2.169,-16.7909 7.128,-24.1832 2.038,-3.0361 5.015,-6.146 5.459,-5.702 0.115,0.1152 -0.207,1.0279 -0.718,2.0279 -1.568,3.0716 -3.244,9.5911 -3.505,13.628 -0.356,5.4972 0.85,13.4641 3.03,20.0092 1.201,3.6065 3.81,9.2989 8.077,17.6171 8.83,17.213 9.889,20.0104 11.122,29.3513 1.088,8.2543 0.864,15.0992 -0.901,27.514 -1.783,12.5392 -2.295,18.1411 -2.962,32.4424 -0.82,17.5353 -2.932,34.9879 -5.153,42.5674 -3.709,12.6598 -12.949,30.3918 -19.165,36.7796 l -1.826,1.8765 2.573,-1.0176 c 1.415,-0.5597 6.028,-2.5511 10.251,-4.4252 7.952,-3.5286 18.315,-7.5477 22.005,-8.5346 3.892,-1.041 11.475,1.3786 17.963,5.7313 3.708,2.4879 10.276,9.0014 13.799,13.6869 4.751,6.3169 11.73,19.3818 11.42,21.3832 -0.103,0.6694 -1.165,1.2911 -4.204,2.4608 -7.904,3.0433 -31.527,15.275 -34.104,17.6601 -0.597,0.5511 -0.509,0.7797 0.73,1.8949 l 1.408,1.2682 10.336,0.1728 c 5.685,0.095 21.213,0.1 34.505,0.013 23.233,-0.1568 63.217,0.529 69.788,1.197 3.063,0.3113 3.168,0.3632 3.408,1.6764 0.135,0.7454 -0.01,2.6383 -0.336,4.2066 -1.229,6.01 -2.334,16.7587 -2.63,25.5655 -0.169,5.0313 -0.541,6.0244 -2.02,5.3861 -2.524,-1.089 -22.766,-2.5109 -35.686,-2.5065 -10.484,0 -11.378,0.047 -11.067,0.5498 0.152,0.2485 0.592,0.4518 0.974,0.4518 0.383,0 1.336,0.284 2.12,0.6311 1.619,0.7186 13.199,4.2718 18.531,5.6868 4.931,1.3088 5.981,1.9505 7.232,4.4209 2.107,4.163 6.548,18.2307 7.021,22.2369 1.206,10.2547 1.384,12.7169 0.97,13.4899 -0.237,0.4418 -1.306,1.1902 -2.378,1.6631 -5.27,2.3274 -17.551,10.3419 -25.888,16.8948 -5.624,4.4211 -12.423,9.1915 -13.1,9.1914 -0.248,-2e-4 -2.473,-1.2667 -4.945,-2.8148 -2.47,-1.5479 -5.722,-3.4296 -7.227,-4.1813 -1.504,-0.7518 -3.344,-1.8242 -4.09,-2.3831 -3.599,-2.6986 -11.831,-6.0895 -26.959,-11.1035 -5.882,-1.9501 -11.946,-4.1771 -13.475,-4.9489 -5.341,-2.6962 -5.243,-3.0629 -1.441,5.3342 l 3.408,7.5231 -0.551,7.0114 c -0.772,9.8466 -1.579,23.2768 -1.569,26.1371 v 2.412 l -3.068,2.4479 c -1.686,1.3464 -3.736,2.8355 -4.554,3.3092 -1.386,0.8019 -10.469,3.1906 -21.589,5.6769 -2.61,0.5833 -5.726,1.4835 -6.927,2.0004 -1.2,0.5169 -2.355,0.9398 -2.567,0.9398 -0.211,0 -1.073,-0.8639 -1.915,-1.9198 z m -217.885,-29.8695 c 3.037,-2.3178 16.258,-11.1555 20.833,-13.9253 2.231,-1.3509 6.698,-3.85 9.929,-5.5535 7.6,-4.0085 20.101,-11.5586 20.101,-12.1399 0,-0.1904 -11.079,3.2414 -21.832,6.7628 -8.965,2.9358 -11.884,3.4374 -12.792,2.1972 -0.336,-0.4591 -0.61,-1.4747 -0.61,-2.257 0,-1.591 0.159,-1.6951 5.873,-3.8344 4.594,-1.7204 11.156,-4.6819 18.746,-8.4604 3.477,-1.7316 8.397,-4.0343 10.931,-5.1171 2.534,-1.0827 4.529,-2.047 4.433,-2.143 -0.44,-0.4402 -16.961,5.5782 -27.109,9.8753 -5.805,2.4585 -34.626,16.6725 -35.555,17.5351 -0.176,0.1637 0.658,3.8532 1.854,8.1987 1.196,4.3455 2.309,8.4599 2.474,9.1432 0.165,0.6833 0.397,1.2422 0.515,1.2422 0.115,0 1.112,-0.6857 2.209,-1.5239 z m 11.112,-33.4439 c 6.336,-3.0949 12.942,-6.5785 14.68,-7.7415 6.235,-4.1688 15.529,-9.6381 21.792,-12.8247 3.507,-1.7835 6.582,-3.4936 6.837,-3.8 0.907,-1.0919 -15.525,1.912 -24.336,4.4491 -4.57,1.3156 -7.629,2.6428 -16.037,6.9569 -5.715,2.9322 -14.76,7.3341 -20.102,9.7819 -5.341,2.4481 -9.777,4.4913 -9.856,4.5409 -0.08,0.05 0.805,1.3802 1.967,2.9572 1.161,1.5769 2.486,3.5993 2.942,4.4942 l 0.831,1.6271 4.882,-2.407 c 2.685,-1.3238 10.064,-4.9392 16.4,-8.0341 z m -26.647,-5.0416 c 8.783,-3.8271 16.895,-7.3053 24.163,-10.3599 20.926,-8.7958 29.136,-12.549 29.136,-13.3215 0,-0.5011 -1.858,-1.3595 -6.824,-3.1541 -3.021,-1.0915 -3.565,-1.1684 -4.518,-0.6373 -0.594,0.3323 -2.605,1.2035 -4.468,1.936 -1.865,0.7325 -4.812,1.973 -6.551,2.7568 -1.739,0.7837 -8.65,3.6322 -15.358,6.33 -6.709,2.6977 -15.144,6.2635 -18.746,7.9238 -3.604,1.6603 -8.272,3.7553 -10.377,4.6555 l -3.826,1.6368 2.019,0.2972 c 2.394,0.3524 6.446,1.8393 8.343,3.0622 0.746,0.4803 1.561,0.888 1.812,0.9062 0.251,0.018 2.589,-0.896 5.195,-2.0317 z m 178.425,0.9908 c 0,-0.093 -0.356,-0.4495 -0.79,-0.7905 -0.717,-0.5619 -0.732,-0.5459 -0.17,0.1705 0.59,0.7524 0.96,0.9918 0.96,0.62 z m 160.925,-20.8735 c 1.813,-2.3055 8.733,-7.9803 11.847,-9.7158 1.745,-0.9732 4.376,-2.2145 5.846,-2.7581 1.47,-0.5439 2.487,-1.0357 2.259,-1.0931 -6.364,-1.6035 -28.024,-8.5499 -39.036,-12.5186 -3.106,-1.1193 -12.558,-4.4987 -21.005,-7.51 -8.448,-3.0113 -18.306,-6.6088 -21.908,-7.9945 -8.883,-3.4162 -15.415,-5.6699 -15.678,-5.4077 -0.298,0.299 1.366,1.1099 8.447,4.1129 7.336,3.1115 8.586,3.7392 8.586,4.3131 0,0.7354 -1.576,0.5161 -9.823,-1.3667 -4.352,-0.9938 -8.243,-1.7997 -8.644,-1.7909 -1.245,0.027 9.165,4.8046 19.658,9.0218 5.499,2.2106 15.154,6.2898 21.457,9.065 9.951,4.3827 19.826,8.5916 23.377,9.964 0.593,0.2293 0.967,0.5291 0.83,0.6661 -0.137,0.1369 -2.452,-0.4611 -5.145,-1.329 -2.692,-0.8679 -7.232,-2.2166 -10.09,-2.9972 -2.857,-0.7806 -9.261,-2.7156 -14.229,-4.3 -4.969,-1.5843 -10.254,-3.2156 -11.744,-3.6251 -1.492,-0.4094 -5.862,-1.7275 -9.713,-2.9292 -14.798,-4.6175 -13.824,-4.4739 -14.796,-2.1807 -0.387,0.9157 -0.381,1.3134 0.03,1.644 1.195,0.9654 20.046,10.1249 28.005,13.6072 9.866,4.3164 21.962,8.7051 31.132,11.296 12.424,3.5097 17.75,4.9329 18.583,4.9637 0.461,0.017 1.251,-0.4946 1.756,-1.1372 z m -391.529,-5.4152 c 8.448,-1.4717 24.935,-5.5674 23.874,-5.9313 -1.65,-0.5671 -29.992,5.1155 -30.311,6.0776 -0.254,0.7621 1.444,0.7234 6.437,-0.1463 z m 161.864,-20.18 c 6.13,-7.6704 11.205,-14.2002 11.275,-14.5106 0.17,-0.7384 -6.089,-7.9637 -6.898,-7.9637 -1.02,0 -16.757,12.2458 -24.287,18.8988 l -4.402,3.891 2.644,2.7214 c 3.468,3.5697 6.942,7.8479 8.225,10.1307 0.832,1.4822 1.151,1.7317 1.664,1.3056 0.349,-0.2898 5.65,-6.8027 11.779,-14.4732 z m -192.771,10.0313 c 2.829,-1.4429 18.252,-6.5324 26.549,-8.7604 9.399,-2.524 9.327,-2.5132 9.327,-1.403 0,1.0668 -3.418,2.796 -13.925,7.0434 -3.931,1.5895 -6.969,2.9495 -6.752,3.0221 0.218,0.073 4.147,-0.7742 8.731,-1.8819 10.019,-2.4218 21.65,-4.8335 29.338,-6.0842 7.589,-1.2345 40.095,-7.8433 44.833,-9.1149 1.958,-0.5258 2.37,-1.5786 0.452,-1.1534 -0.684,0.1512 -5.206,0.408 -10.052,0.5707 -8.681,0.2915 -14.233,-9e-4 -13.785,-0.7261 0.128,-0.2038 2.11,-1.1021 4.41,-1.996 2.299,-0.8939 6.01,-2.6691 8.246,-3.945 2.237,-1.2758 5.895,-3.3063 8.131,-4.512 2.237,-1.2058 3.949,-2.1962 3.805,-2.2011 -0.142,0 -1.718,0.5012 -3.502,1.1244 -5.106,1.7841 -28.179,7.1576 -40.731,9.4862 -3.604,0.6683 -10.639,2.0978 -15.635,3.1766 -8.185,1.7676 -17.727,3.3696 -20.068,3.3696 -1.624,0 -0.916,-0.94 1.518,-2.0166 1.323,-0.585 9.503,-3.3932 18.181,-6.2403 20.437,-6.7054 27.418,-9.5724 34.75,-14.2715 l 1.806,-1.1581 -2.032,-0.3151 c -1.118,-0.1734 -5.183,-0.4531 -9.035,-0.6215 l -7.001,-0.3063 -5.574,2.5282 c -3.066,1.3905 -7.232,3.1159 -9.261,3.8339 -2.027,0.7181 -8.361,3.1813 -14.076,5.4734 -14.96,6.0013 -24.252,9.2632 -38.621,13.559 -11.418,3.4131 -11.479,3.4333 -10.969,3.748 0.264,0.1625 2.382,1.0207 4.707,1.9073 5.439,2.0732 9.219,4.1988 11.97,6.7296 1.209,1.1116 2.255,2.0291 2.328,2.0389 0.08,0.013 0.944,-0.3969 1.937,-0.9039 z m 417.581,-6.7574 c 0.154,-0.2484 -0.05,-0.4517 -0.452,-0.4517 -0.402,0 -0.605,0.2033 -0.452,0.4517 0.154,0.2484 0.358,0.4518 0.452,0.4518 0.09,0 0.299,-0.2034 0.452,-0.4518 z m -234.933,-20.2946 c 5.611,-5.8204 10.202,-10.8515 10.202,-11.18 0,-0.6154 -0.5,-0.769 -1.984,-0.6104 -0.895,0.096 -10.863,4.0981 -17.44,7.0022 -6.713,2.9647 -7.534,2.1901 -2.393,-2.2582 4.361,-3.7736 14.138,-13.2369 14.138,-13.6856 0,-0.1819 -0.89,-1.3414 -1.977,-2.5767 l -1.976,-2.2459 -3.107,2.1419 c -1.709,1.1781 -5.749,4.1982 -8.978,6.7114 -3.23,2.5132 -7.193,5.5022 -8.807,6.6424 -4.692,3.3124 -13.923,10.4327 -14.284,11.018 -0.182,0.2946 -0.128,0.6053 0.133,0.6904 0.782,0.2611 8.369,4.6657 10.77,6.253 1.246,0.8241 4.093,2.9275 6.324,4.6743 l 4.058,3.1761 2.56,-2.5851 c 1.407,-1.4219 7.15,-7.3474 12.761,-13.1678 z m -32.871,-7.361 c 3.939,-3.5335 9.803,-8.8481 13.033,-11.8102 3.23,-2.9621 7.606,-6.7283 9.724,-8.3693 2.118,-1.6411 3.947,-3.1523 4.065,-3.3584 0.115,-0.2062 -1.612,-1.0809 -3.844,-1.9439 -4.763,-1.8415 -3.832,-2.0771 -12.204,3.0885 -9.94,6.1343 -24.114,16.1238 -30.144,21.2458 -1.832,1.5559 -3.828,3.1741 -4.437,3.5959 -1.087,0.7544 -1.053,0.7673 2.057,0.7983 3.731,0.037 8.231,0.933 11.067,2.2037 1.119,0.5007 2.369,0.9248 2.779,0.9423 0.409,0.018 3.967,-2.8591 7.904,-6.3927 z m 153.684,-2.594 c 5.156,-5.4128 16.25,-11.9969 24.454,-14.5129 1.863,-0.5715 3.546,-1.1677 3.739,-1.3249 0.195,-0.1572 -3.16,-1.2559 -7.452,-2.4413 -4.294,-1.1856 -9.446,-2.7207 -11.45,-3.4115 -2.004,-0.6907 -4.511,-1.4022 -5.57,-1.5811 -1.059,-0.179 -6.127,-1.7352 -11.263,-3.4583 -10.359,-3.476 -20.855,-6.4024 -20.855,-5.8145 0,1.1003 7.421,8.0825 11.68,10.9893 2.615,1.7846 4.845,3.5304 4.954,3.8794 0.373,1.181 -3.977,0.2163 -13.757,-3.0516 -11.218,-3.7478 -12.154,-3.9759 -12.512,-3.0465 -0.345,0.9026 2.851,3.7306 8.053,7.1247 4.618,3.0121 18.937,10.3489 24.469,12.5357 4.309,1.7038 5.543,2.4902 4.892,3.1193 -0.291,0.2834 -1.566,0.1391 -3.613,-0.4093 -1.739,-0.466 -3.22,-0.8525 -3.291,-0.859 -0.08,-0.013 0.115,0.4455 0.405,1.0044 0.864,1.6493 3.15,4.4043 3.653,4.4043 0.256,0 1.814,-1.4158 3.464,-3.1462 z m -167.301,-12.2823 c 4.125,-2.1713 4.366,-2.3734 3.567,-2.9907 -1.888,-1.4565 -8.567,-4.2751 -15.682,-6.6173 -8.434,-2.7761 -9.344,-3.1769 -9.344,-4.1155 0,-0.8644 -0.22,-0.8996 5.584,0.8898 2.767,0.8533 8.104,2.0615 11.859,2.6847 3.755,0.6232 8.017,1.5513 9.47,2.0623 3.364,1.1821 3.462,1.168 1.441,-0.2057 -0.919,-0.6241 -4.167,-2.1741 -7.22,-3.4443 -3.051,-1.2702 -8.699,-3.6291 -12.551,-5.2419 -9.132,-3.8245 -13.316,-5.349 -15.81,-5.7618 -1.118,-0.1849 -3.557,-0.9327 -5.42,-1.6617 -3.479,-1.3608 -19.308,-9.1686 -20.083,-9.9057 -0.273,-0.2592 -0.173,-0.6705 0.269,-1.1121 0.632,-0.6334 1.348,-0.4333 7.421,2.075 3.697,1.5268 9.146,3.8847 12.107,5.2399 7.625,3.4896 12.546,5.3238 17.901,6.6742 5.148,1.2983 8.136,1.4476 11.504,0.5746 l 2.242,-0.5812 -1.79,-0.7401 c -12.769,-5.2784 -27.417,-11.7283 -37.929,-16.701 -4.968,-2.3508 -11.205,-5.2406 -13.858,-6.4219 l -4.824,-2.148 -2.855,1.1343 c -1.57,0.6239 -5.092,1.7732 -7.824,2.5542 -6.196,1.7705 -13.343,4.0478 -14.203,4.5267 -1.4,0.7777 15.862,10.9551 29.114,17.1658 3.973,1.8617 11.999,5.7453 17.838,8.6302 5.839,2.8849 14.071,6.7777 18.296,8.6505 4.223,1.8727 9.508,4.2196 11.744,5.215 2.236,0.9954 4.189,1.8303 4.34,1.8552 0.15,0.024 2.264,-1.0028 4.696,-2.2835 z m 187.011,-15.3672 c 10.981,-3.8848 16.659,-6.497 24.845,-11.4285 8.648,-5.21 20.558,-13.3377 19.544,-13.3377 -0.128,0 -3.56,1.6156 -7.628,3.5902 -4.069,1.9747 -11.668,5.4127 -16.884,7.6401 -5.218,2.2273 -12.231,5.2978 -15.585,6.8233 -3.355,1.5254 -8.131,3.6845 -10.615,4.798 -5.117,2.2932 -8.81,4.4705 -8.81,5.1946 0,0.3213 0.971,0.4185 2.824,0.2829 1.969,-0.1441 5.694,-1.2225 12.309,-3.5629 z m 24.027,-0.6177 c 4.043,-0.915 11.355,-3.3289 11.681,-3.8567 0.143,-0.2288 -0.174,-0.4159 -0.7,-0.4159 -1.164,0 -13.602,3.9972 -14.205,4.565 -0.573,0.5381 -0.362,0.5189 3.224,-0.2924 z m -136.423,-124.5155 c -0.143,-0.3603 -0.251,-0.2533 -0.273,0.2729 -0.01,0.4762 0.09,0.743 0.237,0.593 0.151,-0.1502 0.167,-0.5397 0.04,-0.8659 z m 53.91,171.4005 c -4.883,-5.3286 -10.47,-12.1851 -16.652,-20.4404 -5.866,-7.8315 -11.047,-14.2171 -14.02,-17.2785 -2.594,-2.6708 -4.506,-4.856 -4.249,-4.856 1.428,0 16.353,14.6906 22.782,22.4237 3.738,4.4956 8.462,11.0587 11.867,16.4893 1.19,1.8991 3.566,5.2082 5.278,7.3538 1.712,2.1455 3.114,3.9966 3.114,4.1135 0,0.8366 -1.661,-0.76 -8.12,-7.8054 z m -109.91,-104.1374 c -5.609,-6.4258 -7.517,-10.3494 -8.285,-17.0372 -0.128,-1.118 -0.417,-2.8458 -0.641,-3.8396 -0.226,-0.9938 -0.344,-4.4495 -0.263,-7.6793 0.191,-7.687 1.711,-14.9502 5.26,-25.14 5.257,-15.0897 7.244,-25.5011 7.92,-41.4891 0.291,-6.8679 -0.456,-17.0609 -1.604,-21.9085 -0.55,-2.317 -0.57,-5.1947 -0.04,-5.1947 0.482,0 2.217,4.4876 3.84,9.9378 5.532,18.5675 6.157,32.9078 2.322,53.1961 -1.838,9.7189 -4.24,25.2231 -4.802,30.9985 -0.72,7.3825 -0.293,24.2777 0.72,28.5101 1.44,6.0261 1.116,6.0003 -4.43,-0.3541 z"
       id="path69" /></g></svg>
